<svg xmlns="http://www.w3.org/2000/svg" fill="none" viewBox="0 0 612 612"><g clip-path="url(#a)"><path fill="#000" d="M612 612H0V0h612v612Z"/><path fill="#fff" d="M441 300s-22 10.5-26 13-4 5.579-4 7v58c0 7-2 12-7 16a157.9949 157.9949 0 0 1-78.412 33.882A157.9952 157.9952 0 0 1 241 416c-13-6-25-14-35-25-3-2-5-7-5-11v-60c0-4-1-5-4-7l-46-23c-9-4-13-12-9-19 2-4 6-8 10-10l78-39 66-33c7-4 13-4 21 0l142 72c9 4 12 9 12 19v85c0 12-12 20-22 14-6-3-8-8-8-14v-65Zm-251-24 3 1 110 56 6-1 109-54 3-2-1-1-112-56c-1-1-4 0-5 1l-51 25-62 31Zm41 54v31c0 12 4 18 13 23a129.003 129.003 0 0 0 63.763 15.714A129.0067 129.0067 0 0 0 371 382c8-5 10-9.5 10-19v-33l-5 3-60 30c-7 3-13 3-20 0l-60-30-5-3Z"/></g><defs><clipPath id="a"><path fill="#fff" d="M0 0h612v612H0z"/></clipPath></defs></svg>